#!OML:ASF F:\VICON\USERDATA\INSTALL\rory3\rory3.ASF
:FULLY-SPECIFIED
:DEGREES
99
root 0.08435277090653592 17.698209126573047 48.083808341197944 -2.5737420077016924 -0.19734421960452075 1.6180009333839598
lfemur 4.626657155848523 -2.916900959420332 -27.140995860316124
ltibia 25.550283864774844
lfoot -5.0569500611831275 -0.14357651697337315
ltoes -5.321701272396267
rfemur -21.550853819902983 4.282951886288572 20.795594164930293
rtibia 37.395396218034996
rfoot -8.49170832369387 -6.547209833308998
rtoes 4.290173729585168
lowerback 9.821719292395832 -0.018113311466197102 -1.623409056908857
upperback 0.7850543968389497 0.08685736842781533 1.1468622073938635
thorax -4.706378770113065 0.2313906416623716 1.8983041738966073
lowerneck -16.699534308185168 -2.8686642097212784 -1.9585822360848335
upperneck 20.00892618029454 -3.6403049886766445 1.5487957237454921
head 9.118654981186314 -1.7748247618878494 0.33832875473956553
lclavicle -1.9523119754202357e-15 9.076245054291004e-16
lhumerus -24.455576612504785 -4.287249924469967 83.17231231796963
lradius 24.869718024886136
lwrist 5.3460811310242065
lhand -27.19071363424562 23.227998580271176
lfingers 7.12502
lthumb -0.22417879531381185 54.16800702419682
rclavicle -1.9542094016606027e-15 9.058769952819911e-16
rhumerus -30.536114105733358 -19.888750206213054 -78.61646052088508
rradius 24.908215024646793
rwrist 6.305200372011374
rhand -17.7204776122992 22.81822108315794
rfingers 7.12502
rthumb 8.470457925923913 -7.098864596511741
100
root 0.020191417204606876 17.64282733837358 48.47030829161571 -2.3661469628541028 0.01991284957271855 1.713533471004455
lfemur 8.060975269475065 -2.7149118683075533 -27.169289609160824
ltibia 26.24517996093176
lfoot -4.48697568359311 -0.7963536280708157
ltoes -4.552805324780119
rfemur -21.003475196905747 5.073751700980732 20.906481611618883
rtibia 35.90633565464342
rfoot -8.849645883426126 -6.580366104127216
rtoes 4.5069475714547345
lowerback 9.724055409643768 -0.08096039572292557 -1.5647493643030972
upperback 0.78228666423825 -0.1508536451784943 1.2097255170073204
thorax -4.684275382120822 0.1795771738370463 1.9267498750983023
lowerneck -16.728581428143222 -2.876287716066157 -1.998724999153012
upperneck 20.04416208593958 -3.630191072149269 1.5939523815746162
head 9.132232180753784 -1.7680447337095495 0.3537793634873505
lclavicle -1.9523119754202353e-15 9.076245054291004e-16
lhumerus -23.20480600437005 -5.082081890130021 83.07629289336205
lradius 24.72242629809204
lwrist 5.371972017217206
lhand -27.373087887716675 22.799434834866272
lfingers 7.12502
lthumb -0.2872938444138934 54.01091305646285
rclavicle -1.9542094016606027e-15 9.058769952819911e-16
rhumerus -30.982944366367676 -20.994248046877978 -78.08269451588225
rradius 24.788281520999057
rwrist 6.825886607655474
rhand -17.74260391921293 22.801300643596615
rfingers 7.12502
rthumb 8.482651840514132 -7.088819258118686
101
root -0.053625234093956864 17.591745904225785 48.53337284957182 -2.3017194907664047 0.053272513499440954 1.5696027418773566
lfemur 10.823531045682333 -3.216108124886661 -27.19739591783062
ltibia 28.00574655521977
lfoot -4.007618375693924 -1.3895576289436362
ltoes -5.031893163123733
rfemur -21.623647444041538 5.185120782773795 20.7625509661937
rtibia 34.9937752268248
rfoot -8.955278562541322 -6.598648967153726
rtoes 4.397608510648224
lowerback 9.635406517844078 -0.1157311656189417 -1.3981051787718168
upperback 0.7626752248565256 -0.38854739424493423 1.2574811617260662
thorax -4.660650292000773 0.1622437259752295 1.9501680255926233
lowerneck -16.703167372708165 -2.872100404862353 -2.010861308331103
upperneck 20.038264085454852 -3.633513588525848 1.5929835680967421
head 9.13333276541464 -1.7688046114537193 0.3555897938678728
lclavicle -1.9523119754202353e-15 9.076245054291006e-16
lhumerus -22.425643364136494 -5.615210679722801 82.99156250620291
lradius 24.509169901540787
lwrist 5.318134782664508
lhand -27.183063680560178 23.247397703476807
lfingers 7.12502
lthumb -0.23923444678729694 54.1253146380673
rclavicle -1.9542094016606027e-15 9.058769952819911e-16
rhumerus -31.302887233871317 -21.94938452607979 -77.31195193086661
rradius 24.633610546321908
rwrist 7.180478900882943
rhand -17.79465730758803 22.715404854184527
rfingers 7.12502
rthumb 8.499863073655854 -7.057811927985809
102
root -0.11913900574339237 17.563983063987763 48.70467531595121 -2.337685828949895 0.011929934733180492 1.2256977166146443
lfemur 12.040512026184228 -4.057680864292088 -27.207291228467593
ltibia 30.762885707866744
lfoot -3.0543699973269054 -1.2067673388090565
ltoes -5.2307735266722
rfemur -21.09171168888843 5.412202444122027 21.513800545706953
rtibia 34.39970272686028
rfoot -8.610669584590026 -6.504687997059591
rtoes 3.834638618118981
lowerback 9.553659381703 -0.12895990792803957 -1.097053690863344
upperback 0.7359164182156747 -0.5162651170016812 1.3525700744135698
thorax -4.649621006601247 0.15330242875226358 1.8800134667736168
lowerneck -16.71579034629039 -2.873950017388448 -2.0360012748140237
upperneck 20.02094240339394 -3.6458019569090516 1.5978368752677743
head 9.1392591480558 -1.7633276087471155 0.37259867518781065
lclavicle -1.9523119754202353e-15 9.076245054291006e-16
lhumerus -21.849955099912382 -5.585365332876876 83.02621583585687
lradius 24.29148969977903
lwrist 5.3444283004505415
lhand -27.325402511556188 22.883511174056462
lfingers 7.12502
lthumb -0.3462793125861915 53.892598294179244
rclavicle -1.9542094016606027e-15 9.058769952819911e-16
rhumerus -31.816270654806022 -23.38691820942978 -76.66772270000097
rradius 24.563342414548682
rwrist 7.47963025376626
rhand -17.810221568738196 22.688152668771412
rfingers 7.12502
rthumb 8.508075320519012 -7.0394802926263935
103
root -0.1744020134620186 17.563742494786602 48.55907331276354 -2.470862982271386 -0.11637834857182394 0.6248960339755683
lfemur 13.055577477469956 -5.438761840190035 -26.773340415647105
ltibia 34.0766149164039
lfoot -3.103066348641031 -1.5983602166614568
ltoes -5.121186636700202
rfemur -20.34453301601648 5.315996862992899 22.53528974962981
rtibia 34.340787438172235
rfoot -8.48597174481534 -6.495893776179572
rtoes 3.5058473809225306
lowerback 9.497694396274635 -0.06855872713779221 -0.547500224850983
upperback 0.7153418346871419 -0.5526717320703909 1.4751147425166367
thorax -4.64177907145014 0.1770270932963754 1.81067117502845
lowerneck -16.744917852813188 -2.8829074008134294 -2.0785558107352236
upperneck 19.992551102699924 -3.6612123570089894 1.5925821912032658
head 9.117872014800719 -1.7709273683153808 0.35881743303353403
lclavicle -1.9523119754202353e-15 9.076245054291006e-16
lhumerus -21.694762512735696 -5.247984247807413 83.15435680429675
lradius 24.103586045842597
lwrist 5.11920837915675
lhand -27.109769113559647 23.378933622878627
lfingers 7.12502
lthumb -0.2901547517101278 54.04335463510969
rclavicle -1.9542094016606027e-15 9.058769952819911e-16
rhumerus -32.00709774494542 -24.17605954577838 -75.96685692776433
rradius 24.550301944980937
rwrist 7.758939503659797
rhand -17.88421993383666 22.529835837238146
rfingers 7.12502
rthumb 8.487626243763007 -7.077551465529674
